<svg xmlns="http://www.w3.org/2000/svg" width="42" height="38" fill="none" viewBox="0 0 42 38">
    <path fill="#fff" d="M0 0H445V1136H0z" transform="translate(-332 -28)"/>
    <path fill="#2F80ED" fill-rule="evenodd" d="M3.356 1h35.288C40.49 1 42 2.532 42 4.405c0 1.873-1.51 3.406-3.355 3.406H3.355C1.51 7.81 0 6.278 0 4.405 0 2.532 1.51 1 3.356 1zM3.356 14.395h35.288C40.49 14.395 42 15.927 42 17.8c0 1.873-1.51 3.405-3.355 3.405H3.355C1.51 21.205 0 19.673 0 17.8c0-1.873 1.51-3.405 3.356-3.405zM3.356 27.79h35.288c1.846 0 3.356 1.532 3.356 3.405 0 1.873-1.51 3.405-3.355 3.405H3.355C1.51 34.6 0 33.068 0 31.195c0-1.873 1.51-3.406 3.356-3.406z" clip-rule="evenodd"/>
</svg>
