<svg xmlns="http://www.w3.org/2000/svg" width="100" height="100" fill="none" viewBox="0 0 100 100">
    <path fill="#fff" d="M0 0H445V1136H0z" transform="translate(-173 -30)"/>
    <path fill="#27AE60" d="M50 100c-13.262 0-25.98-5.27-35.355-14.645C5.27 75.979 0 63.261 0 50c0-13.261 5.27-25.98 14.645-35.355C24.02 5.27 36.739 0 50 0c13.261 0 25.98 5.27 35.355 14.645C94.73 24.02 100 36.739 100 50c0 13.261-5.27 25.98-14.645 35.355C75.979 94.73 63.261 100 50 100zm0-91.668c-11.051 0-21.648 4.39-29.461 12.207C12.723 28.352 8.332 38.949 8.332 50c0 11.051 4.39 21.648 12.207 29.461C28.352 87.277 38.949 91.668 50 91.668c11.051 0 21.648-4.39 29.461-12.207C87.277 71.648 91.668 61.051 91.668 50c0-11.051-4.39-21.648-12.207-29.461C71.648 12.723 61.051 8.332 50 8.332z"/>
    <path fill="#27AE60" d="M41.668 70.832c-1.11.008-2.172-.426-2.96-1.207L22.038 52.957h.004c-1.418-1.652-1.32-4.117.219-5.656 1.54-1.54 4-1.633 5.656-.219l13.75 13.711 30.375-30.375c1.652-1.418 4.117-1.32 5.656.219 1.54 1.539 1.633 4 .22 5.656L44.585 69.625h-.004c-.773.77-1.824 1.203-2.914 1.207z"/>
</svg>
