<svg xmlns="http://www.w3.org/2000/svg" width="134" height="37" fill="none" viewBox="0 0 134 37">
    <path fill="#0000" d="M0 0H445V1136H0z" transform="translate(-28 -281)"/>
    <circle cx="18.814" cy="18.814" r="17.814" fill="url(#paint0_angular)"/>
    <circle cx="18.815" cy="18.814" r="16.945" fill="#202033"/>
    <g clip-path="url(#clip0)">
        <path fill="#fff" d="M100.836 26.582c-.108.013-.188.04-.268.04H98.25c-.054 0-.12-.04-.174-.053-.134-.228-.08-.47-.08-.697v-6.616c0-.295-.014-.603-.054-.898-.107-.897-.804-1.607-1.782-1.62-.335-.014-.697 0-1.018.093-.71.215-1.152.724-1.326 1.447-.08.348-.108.723-.108 1.085-.013 2.156 0 4.326 0 6.482 0 .228-.013.47-.013.684-.455.133-1.889.16-2.72.066-.174-.2-.093-.442-.093-.67V19.19c0-.241 0-.47-.014-.71-.067-1.018-.884-1.688-1.808-1.741-1.3-.08-2.103.803-2.318 1.714-.08.348-.107.723-.107 1.085-.013 2.116 0 4.232-.013 6.362 0 .228.04.469-.054.683-.482.094-1.97.12-2.733.027-.027-.107-.067-.228-.067-.348-.013-.148 0-.295 0-.456V15.278c0-.255-.027-.51.067-.79.858-.08 1.715-.014 2.6-.04.026.173.066.307.08.455.013.495 0 .977 0 1.446.147.067.187 0 .24-.08.068-.134.135-.268.215-.389.603-.95 1.474-1.46 2.599-1.553.616-.054 1.232-.027 1.835.187.777.295 1.353.804 1.742 1.54.04.08.067.161.107.228.027.054.067.107.134.201.08-.107.16-.2.214-.294.67-1.18 1.715-1.755 3.041-1.862.644-.054 1.287-.04 1.903.187 1.085.389 1.782 1.139 2.143 2.224.148.442.241.91.241 1.38v8.089c-.053.107-.08.228-.093.375zM126.732 14.742c-.469.107-2.143.12-2.773.013-.027-.08-.053-.187-.094-.28-.241-.831-.79-1.354-1.594-1.621-1.085-.349-2.157-.335-3.188.16-.737.348-1.139.938-1.126 1.795.014.509.228.91.59 1.232.308.268.656.482 1.058.59.911.254 1.809.509 2.72.75.79.2 1.554.468 2.277.857.549.294 1.045.67 1.447 1.152.603.71.911 1.54.938 2.477.013.59-.04 1.152-.228 1.715-.442 1.299-1.38 2.143-2.599 2.679-1.206.522-2.478.656-3.778.589-.964-.054-1.916-.174-2.813-.563-1.139-.495-2.05-1.245-2.572-2.384-.308-.67-.456-1.393-.429-2.022.442-.16.911-.054 1.367-.08.468-.014.937 0 1.433.013.08.228.147.428.201.63.214.736.683 1.232 1.366 1.513 1.273.536 2.546.522 3.805-.027.482-.214.871-.55 1.099-1.031.375-.764.268-1.715-.563-2.277-.482-.335-1.032-.523-1.581-.683-.951-.268-1.902-.51-2.853-.764-.643-.174-1.246-.442-1.836-.763-2.8-1.58-2.478-4.983-.79-6.576.817-.777 1.782-1.26 2.867-1.5 1.205-.268 2.425-.268 3.63 0 1.273.28 2.371.87 3.175 1.915.509.656.777 1.42.858 2.25.013.08 0 .174-.014.241zM54.362 21.28c.603-.081 2.398-.068 2.894.026.067.188.013.375-.04.563-.79 3.08-3.39 4.754-5.962 4.929-.964.067-1.929.04-2.867-.201-1.902-.51-3.309-1.648-4.287-3.335-.468-.804-.736-1.688-.91-2.599-.39-1.995-.282-3.964.442-5.88.897-2.33 2.558-3.884 5.023-4.433 1.755-.388 3.497-.268 5.145.522 1.58.764 2.666 1.983 3.215 3.657.134.402.308.803.268 1.232-.442.12-2.077.134-2.907.04-.054-.147-.107-.308-.161-.455-.389-1.219-1.206-1.996-2.425-2.357-1.232-.362-2.411-.242-3.537.401-.857.496-1.393 1.26-1.768 2.143-.308.71-.442 1.474-.496 2.25-.08.992 0 1.97.241 2.934.228.884.617 1.687 1.287 2.33 1.111 1.058 2.451 1.366 3.925 1.058 1.406-.294 2.384-1.098 2.8-2.518.027-.12.08-.214.12-.308zM64.477 14.273c1.072-.013 2.023.188 2.92.643 1.152.603 1.97 1.514 2.452 2.706.777 1.955.804 3.937 0 5.88-.777 1.888-2.237 2.973-4.274 3.268-.857.134-1.701.093-2.545-.094-2.117-.496-3.416-1.862-4.019-3.898-.429-1.473-.429-2.96 0-4.433.469-1.62 1.433-2.853 2.987-3.563.79-.375 1.648-.522 2.479-.509zm2.96 6.282c0-.215.014-.429 0-.643-.066-.804-.28-1.554-.723-2.237-.737-1.111-2.33-1.46-3.483-.777-.777.456-1.166 1.179-1.393 1.996-.242.857-.242 1.741-.134 2.612.067.576.24 1.125.522 1.647.603 1.125 1.916 1.661 3.189 1.26.71-.229 1.205-.71 1.54-1.367.375-.79.51-1.62.483-2.491zM71.63 23.38c.51-.187 1.716-.32 2.734-.32.053.107.134.227.187.361.295.67.818 1.018 1.514 1.165.55.12 1.112.108 1.661-.026.376-.08.737-.241 1.005-.523.536-.549.456-1.34-.174-1.768-.281-.187-.603-.321-.938-.388-.79-.174-1.594-.335-2.384-.51-.63-.133-1.233-.347-1.796-.682-1.3-.764-1.728-2.237-1.393-3.563.268-1.045.938-1.755 1.876-2.237.978-.495 2.036-.643 3.121-.63.804.014 1.581.121 2.318.416 1.219.482 1.996 1.353 2.358 2.612.013.04.013.08.026.12v.134c-.428.174-1.741.349-2.532.308-.04-.067-.093-.12-.12-.2-.456-.965-1.286-1.273-2.264-1.246-.322 0-.63.107-.938.187-.107.027-.2.067-.295.12-.469.255-.777.63-.737 1.18.04.508.376.87.858 1.03.63.202 1.273.35 1.916.51.576.147 1.165.254 1.755.402.495.133.964.348 1.393.63.991.655 1.393 1.606 1.3 2.758-.121 1.447-.965 2.384-2.225 3-.736.362-1.527.523-2.357.576-.871.067-1.715.014-2.546-.174-.83-.187-1.58-.535-2.197-1.138-.643-.576-1.018-1.273-1.125-2.103zM102.336 22.35c.549-.094 2.277-.094 2.867-.014.027.12.04.241.067.362.228 1.071.951 1.714 2.237 1.688.268 0 .563-.054.817-.148.617-.214.978-.683 1.152-1.286.094-.321.134-.67.148-1.018.027-.495.013-.99.013-1.473v-9.308-.71c.496-.188.965-.08 1.42-.094.469-.014.938 0 1.434 0 .027.147.067.268.08.388.014.107 0 .215 0 .322V21.72c0 .429-.04.857-.12 1.273-.349 1.835-1.447 3.04-3.216 3.576-1.473.442-2.96.388-4.407-.201-1.42-.603-2.572-2.036-2.492-4.018zM17.12 11.233c-.093-.51-.093-3.308-.013-3.951.643-.12 1.3-.04 1.956-.04.656 0 1.326-.04 2.01.026.107.67.04 1.326.053 1.983.014.642 0 1.285 0 1.942-.12.04-.214.093-.308.093h-3.47c-.08 0-.16-.04-.228-.053zm2.707-1.192c.107-.737.093-1.139-.054-1.58-.362 0-.737-.014-1.125-.014-.107 0-.201.04-.335.067.027.509-.067 1.018.067 1.527h1.447zM8.948 21.332c.522-.108 3.349-.108 3.925-.014.014.054.067.107.067.161 0 1.179.014 2.357 0 3.536 0 .08-.04.16-.053.241-.08.027-.135.067-.202.067H9.15c-.054 0-.12-.027-.188-.053-.027-.067-.067-.121-.067-.175 0-1.178-.013-2.357-.013-3.536.013-.08.053-.16.067-.227zm2.733 1.178h-.777c-.255.014-.51-.04-.79.067-.014.496-.054.978.04 1.474.509.067.99.067 1.5 0 .107-.496.067-.978.027-1.54zM25.185 25.31c-.08-.844-.054-3.416.027-3.951.428-.08.87-.027 1.312-.04.43-.014.858-.014 1.287 0 .442.013.897-.054 1.38.053.08.428.026.857.04 1.272.013.456 0 .898 0 1.353 0 .429.013.844-.014 1.246-.08.053-.12.094-.147.094-1.206.013-2.398.013-3.604.026-.094 0-.174-.026-.281-.053zm1.232-1.22c.536.068 1.032.121 1.568-.026v-.723c-.014-.255.04-.51-.067-.777-.51-.027-.978-.067-1.46.027-.108.321-.054.616-.054.91-.027.188 0 .375.013.59zM19.075 20.89c-1.272-.014-2.29-1.018-2.277-2.277 0-1.246 1.032-2.25 2.29-2.264 1.434-.026 2.359 1.286 2.319 2.317-.054 1.246-1.046 2.224-2.332 2.224zm.094-3.268c-.59-.027-1.058.375-1.098.937-.04.55.402 1.045.95 1.085.563.04 1.046-.375 1.1-.937.04-.536-.402-1.112-.952-1.085zM18.526 11.635c.389-.054.75-.04 1.099-.014.027.094.067.161.067.215v3.91c0 .08-.027.161-.054.282H18.5c-.066-.522-.066-3.804.027-4.393zM21.032 20.408c.187-.295.375-.603.576-.938.576.214 1.085.576 1.607.884.536.308 1.072.616 1.595.938.053.455.053.87.013 1.259-.16.093-.241 0-.335-.04-1.232-.67-3.095-1.795-3.456-2.103zM16.584 19.43c.174.308.362.616.563.95-.59.456-1.26.778-1.903 1.14-.63.36-1.219.763-1.929 1.057-.12-.455-.067-.87-.04-1.272.55-.415 2.813-1.701 3.309-1.875z"/>
    </g>
    <defs>
        <radialGradient id="paint0_angular" cx="0" cy="0" r="1" gradientTransform="rotate(38.876 -19.404 36.823) scale(17.9985)" gradientUnits="userSpaceOnUse">
            <stop offset=".094" stop-color="#6943F6"/>
            <stop offset=".203" stop-color="#AC858A"/>
            <stop offset=".464" stop-color="#F4D51F"/>
            <stop offset=".634" stop-color="#B6D462"/>
            <stop offset=".744" stop-color="#58C9C6"/>
            <stop offset=".897" stop-color="#477CE9"/>
            <stop offset="1" stop-color="#5046FD"/>
        </radialGradient>
        <clipPath id="clip0">
            <path fill="#fff" d="M0 0H125.782V35.627H0z" transform="translate(1.218 1)"/>
        </clipPath>
    </defs>
</svg>
