<svg xmlns="http://www.w3.org/2000/svg" width="98" height="98" fill="none" viewBox="0 0 98 98">
    <path fill="#0000" d="M0 0H445V1136H0z" transform="translate(-172 -149)"/>
    <path fill="url(#paint0_linear)" d="M48.5 96C74.734 96 96 74.734 96 48.5 96 22.267 74.734 1 48.5 1 22.267 1 1 22.267 1 48.5 1 74.734 22.267 96 48.5 96z"/>
    <path fill="#1F1F1F" d="M39.213 79.916c6.802-3.927 9.795-11.465 10.17-18.813.358-7.004-6.553-11.076-12.72-14.415-7.795-4.22-13.101-12.469-13.101-21.938 0-3.605.772-7.034 2.157-10.13.405-.906-.613-1.907-1.43-1.344C13.092 20.983 5.75 33.88 5.75 48.5c0 12.58 4.174-5.753 13.78 24.52 1.788 5.631 6.245 10.561 12.072 9.58 2.625-.441 5.26-1.326 7.611-2.684z"/>
    <path fill="#1F1F1F" d="M25.968 24.743c0 7.854 5.031 14.215 11.208 18.215 5.887 3.812 12.869-.137 18.844-3.81 7.551-4.64 17.348-5.11 25.549-.376 3.123 1.803 5.705 4.186 7.694 6.934.583.803 1.958.422 1.88-.568-1.077-13.549-8.575-26.357-21.236-33.667-10.894-6.29 2.895 6.492-28.125-.325-5.77-1.268-12.269.127-14.333 5.663-.93 2.495-1.48 5.219-1.48 7.934z"/>
    <path fill="#1F1F1F" d="M80.366 40.865c-6.802-3.927-14.827-2.75-21.378.599-6.245 3.192-6.316 11.213-6.123 18.223.243 8.86-4.248 17.58-12.449 22.315-3.122 1.803-6.477 2.848-9.852 3.197-.987.102-1.344 1.484-.448 1.91 12.272 5.843 27.113 5.753 39.774-1.557 10.894-6.29-7.07-.738 14.344-24.194 3.984-4.363 6.024-10.688 2.262-15.244-1.695-2.052-3.78-3.892-6.13-5.25z"/>
    <defs>
        <linearGradient id="paint0_linear" x1="18.67" x2="79.47" y1="4.99" y2="91.63" gradientUnits="userSpaceOnUse">
            <stop stop-color="#FCECB2"/>
            <stop offset=".26" stop-color="#FF8B89"/>
            <stop offset=".521" stop-color="#FC8ADC"/>
            <stop offset=".755" stop-color="#7954FF"/>
            <stop offset="1" stop-color="#70BCFF"/>
        </linearGradient>
    </defs>
</svg>
