<svg xmlns="http://www.w3.org/2000/svg" width="41" height="41" fill="none" viewBox="0 0 41 41">
    <path fill="#2F80ED" d="M0 0H445V1136H0z" transform="translate(-385 -27)"/>
    <path fill="#f2f2f2" fill-rule="evenodd" d="M24.513 20L38.05 33.538c1.265 1.266 1.265 3.248 0 4.513-1.265 1.265-3.247 1.265-4.513 0L20 24.513 6.462 38.05c-1.266 1.265-3.248 1.265-4.513 0-1.265-1.265-1.265-3.247 0-4.513L15.487 20 1.95 6.462c-1.265-1.266-1.265-3.248 0-4.513 1.265-1.265 3.247-1.265 4.513 0L20 15.487 33.538 1.95c1.266-1.265 3.248-1.265 4.513 0 1.265 1.265 1.265 3.247 0 4.513L24.513 20z" clip-rule="evenodd"/>
</svg>
