<svg xmlns="http://www.w3.org/2000/svg" width="31" height="27" fill="none" viewBox="0 0 31 27">
    <path fill="#fffff" d="M0 0H445V1136H0z" transform="translate(-293 -138)"/>
    <path fill="#C4C4C4ff" d="M28.094 13.188H5.081l7.266-6.769c.359-.336.324-.853-.077-1.153-.401-.301-1.018-.272-1.376.065l-8.719 8.125-.029.032-.043.045-.03.036-.038.053-.03.049v.252c0 .02-.067.036-.067.077v.309l.03.049.038.052.029.037.043.045.03.032 8.718 8.125c.359.336.975.366 1.376.065.4-.3.436-.817.077-1.154l-7.197-6.747h23.012c.535 0 .969-.364.969-.813 0-.449-.434-.812-.969-.812z"/>
    <path fill="url(#paint0_radial)" d="M28.094 13.188H5.081l7.266-6.769c.359-.336.324-.853-.077-1.153-.401-.301-1.018-.272-1.376.065l-8.719 8.125-.029.032-.043.045-.03.036-.038.053-.03.049v.252c0 .02-.067.036-.067.077v.309l.03.049.038.052.029.037.043.045.03.032 8.718 8.125c.359.336.975.366 1.376.065.4-.3.436-.817.077-1.154l-7.197-6.747h23.012c.535 0 .969-.364.969-.813 0-.449-.434-.812-.969-.812z"/>
    <defs>
        <radialGradient id="paint0_radial" cx="0" cy="0" r="1" gradientTransform="rotate(-30.384 118.67 97.888) scale(80.2676 996.837)" gradientUnits="userSpaceOnUse">
            <stop stop-color="#7164F6"/>
            <stop offset=".094" stop-color="#7D61F3"/>
            <stop offset=".505" stop-color="#AE75E7"/>
            <stop offset=".669" stop-color="#5A43F5"/>
            <stop offset=".878" stop-color="#42A0FF"/>
        </radialGradient>
    </defs>
</svg>
