<svg xmlns="http://www.w3.org/2000/svg" width="22" height="19" fill="none" viewBox="0 0 22 19">
    <path fill="#fff" d="M0 0H445V1136H0z" transform="translate(-288 -73)"/>
    <path fill="#2F80ED" d="M15.888 15.278c0 .625-.507 1.15-1.13 1.15H5.705c-.625 0-1.131-.526-1.131-1.15V6.227c0-.625.506-1.113 1.13-1.113h5.28V4.36h-5.28c-1.04 0-1.885.827-1.885 1.867v9.051c0 1.04.846 1.904 1.886 1.904h9.05c1.04 0 1.886-.864 1.886-1.904v-5.26h-.754v5.26z"/>
    <path fill="#2F80ED" d="M16.738 4.245c-.57-.57-1.563-.57-2.133 0l-5.06 5.06c-.049.048-.083.109-.099.174l-.533 2.134c-.031.128.006.264.1.359.071.071.167.11.266.11.03 0 .06-.004.091-.012l2.134-.533c.066-.016.127-.05.175-.099l5.06-5.06c.284-.284.441-.663.441-1.066s-.156-.782-.442-1.067zm-5.518 6.586l-1.423.355.356-1.423 4.185-4.185 1.067 1.066-4.185 4.187zm4.985-4.986l-.266.266-1.067-1.066.266-.267c.285-.285.783-.285 1.067 0 .142.142.221.332.221.534 0 .201-.079.39-.221.533z"/>
</svg>
