<svg xmlns="http://www.w3.org/2000/svg" width="43" height="45" fill="none" viewBox="0 0 43 45">
    <path fill="#2F80ED" d="M0 0H445V1136H0z" transform="translate(-334 -73)"/>
    <path fill="#f2f2f2" d="M22 6.95c-4.95 0-9 4.05-9 9s4.05 9 9 9 9-4.05 9-9-4.05-9-9-9z"/>
    <path fill="#f2f2f2" d="M22.41 2h-.82C11.897 2 4 9.895 4 19.59v.82c0 3.517 1.023 6.79 2.823 9.53.327.492.654.942 1.022 1.433.491.654 1.064 1.268 1.678 1.8.572.532 1.186 1.063 1.84 1.513C14.228 36.773 17.747 38 21.592 38h.818c3.846 0 7.364-1.227 10.268-3.314.655-.45 1.269-.981 1.841-1.513.573-.573 1.146-1.187 1.636-1.8.369-.45.696-.941 1.023-1.432C38.977 27.2 40 23.927 40 20.409v-.818C40 9.895 32.105 2 22.41 2zm15.135 18.41c0 2.658-.695 5.113-1.881 7.28-1.637-1.84-3.887-3.108-6.464-3.476-2.046 1.472-4.5 2.372-7.2 2.372s-5.195-.859-7.2-2.372c-2.577.368-4.827 1.636-6.464 3.477-1.186-2.168-1.881-4.623-1.881-7.282v-.818c0-8.346 6.79-15.136 15.136-15.136h.818c8.346 0 15.136 6.79 15.136 15.136v.818z"/>
</svg>
