<svg xmlns="http://www.w3.org/2000/svg" width="106" height="109" fill="none" viewBox="0 0 106 109">
    <path fill="#fff" d="M0 0H445V1136H0z" transform="translate(-27 -143)"/>
    <path fill="#2F80ED" d="M54.977 4C41.376 4 28.581 9.19 18.946 18.633 9.31 28.075 4 40.636 4 54c0 13.363 5.31 25.924 14.946 35.368C28.58 98.81 41.353 104 54.977 104c13.624 0 26.396-5.19 36.031-14.632 9.636-9.444 14.946-22.005 14.946-35.368 0-13.363-5.31-25.924-14.946-35.367C81.373 9.188 68.578 4 54.978 4zm0 93.319c-24.402 0-44.255-19.444-44.255-43.319 0-23.875 19.853-43.319 44.255-43.319S99.232 30.125 99.232 54c0 23.875-19.853 43.319-44.255 43.319z"/>
    <path fill="#2F80ED" d="M76.957 68.477L57.888 53.889v-28.82c0-1.848-1.501-3.34-3.36-3.34-1.86 0-3.362 1.492-3.362 3.34v30.468c0 1.047.448 2.026 1.277 2.65l20.413 15.59c.606.468 1.323.69 2.04.69 1.008 0 2.016-.445 2.689-1.313 1.12-1.448.851-3.541-.628-4.677z"/>
</svg>
