<svg xmlns="http://www.w3.org/2000/svg" width="20" height="20" fill="none" viewBox="0 0 20 20">
    <path fill="#f2f2f2" d="M0 0H445V1136H0z" transform="translate(-290 -98)"/>
    <path fill="#2F80ED" d="M13.043 17H3.914c-.5 0-.914-.414-.914-.914V5.743c0-.5.414-.914.914-.914h9.129c.5 0 .914.414.914.914v10.343c0 .5-.414.914-.914.914zm-8.829-1.214h8.529V6.043H4.214v9.743z"/>
    <path fill="#2F80ED" d="M15.172 14.871c-.343 0-.614-.271-.614-.614V4.214H5.729c-.343 0-.614-.271-.614-.614 0-.343.285-.6.614-.6h9.114c.2 0 .486 0 .715.229.1.1.214.271.214.542v10.486c0 .343-.271.614-.6.614z"/>
</svg>
