<svg xmlns="http://www.w3.org/2000/svg" width="34" height="30" fill="none" viewBox="0 0 34 30">
    <path fill="#fff" d="M0 0H445V1136H0z" transform="translate(-286 -29)"/>
    <path fill="#2F80ED" d="M29.094 13.188H6.081l7.266-6.769c.359-.336.324-.853-.077-1.153-.401-.301-1.018-.272-1.376.065l-8.719 8.125-.029.032-.043.045-.03.036-.038.053-.03.049v.252c0 .02-.067.036-.067.077v.309l.029.049.039.052.029.037.043.045.03.032 8.718 8.125c.359.336.975.366 1.376.065.4-.3.436-.817.077-1.154l-7.197-6.747h23.012c.535 0 .969-.364.969-.813 0-.449-.434-.812-.969-.812z"/>
</svg>
