<svg width="834" height="200" viewBox="0 0 834 200" fill="none" xmlns="http://www.w3.org/2000/svg">
<circle cx="100" cy="100" r="100" fill="url(#paint0_linear)"/>
<path d="M80.4486 166.139C94.7675 157.872 101.07 142.003 101.86 126.532C102.613 111.787 88.0642 103.214 75.0799 96.1856C58.6695 87.3029 47.4986 69.9352 47.4986 50.0006C47.4986 42.4097 49.1245 35.1926 52.0405 28.6729C52.8937 26.7655 50.7489 24.659 49.0278 25.8438C25.4588 42.0697 10 69.2222 10 100.001C10 126.483 18.7875 87.8875 39.012 151.62C42.7744 163.476 52.1578 173.855 64.4242 171.791C69.9513 170.86 75.4978 168.997 80.4486 166.139Z" fill="#1F1F1F"/>
<path d="M52.564 49.9859C52.5644 66.5202 63.1557 79.9121 76.159 88.3321C88.5522 96.357 103.251 88.0439 115.83 80.3133C131.728 70.5428 152.354 69.5523 169.618 79.5197C176.192 83.3151 181.629 88.3317 185.817 94.1169C187.043 95.8095 189.939 95.0054 189.774 92.9224C187.506 64.3981 171.721 37.4341 145.066 22.0449C122.131 8.80371 151.162 35.7116 85.8562 21.3604C73.7072 18.6906 60.0272 21.6274 55.6819 33.2827C53.7239 38.5343 52.5646 44.2696 52.564 49.9859Z" fill="#1F1F1F"/>
<path d="M167.086 83.9256C152.767 75.6588 135.873 78.1351 122.08 85.1863C108.933 91.9067 108.783 108.793 109.189 123.552C109.701 142.205 100.246 160.563 82.9819 170.53C76.408 174.326 69.3449 176.526 62.2407 177.261C60.1622 177.476 59.4102 180.386 61.2969 181.284C87.1335 193.583 118.378 193.394 145.032 178.005C167.967 164.764 130.149 176.451 175.23 127.07C183.617 117.884 187.913 104.568 179.992 94.9773C176.423 90.6559 172.036 86.7843 167.086 83.9256Z" fill="#1F1F1F"/>
<path d="M300.6 120.8C300.6 123.12 299.76 125.12 298.08 126.8C296.48 128.4 294.52 129.2 292.2 129.2H258.6C256.28 129.2 254.28 128.4 252.6 126.8C251 125.12 250.2 123.12 250.2 120.8V78.7999C250.2 76.4799 251 74.5199 252.6 72.9199C254.28 71.2399 256.28 70.3999 258.6 70.3999H292.2C294.52 70.3999 296.48 71.2399 298.08 72.9199C299.76 74.5199 300.6 76.4799 300.6 78.7999V87.1999H291V78.7999H259.8V120.8H291V112.4H300.6V120.8Z" fill="#1F1F1F"/>
<path d="M366.652 120.8C366.652 123.12 365.812 125.12 364.132 126.8C362.532 128.4 360.572 129.2 358.252 129.2H333.052C330.732 129.2 328.732 128.4 327.052 126.8C325.452 125.12 324.652 123.12 324.652 120.8V95.5999C324.652 93.2799 325.452 91.3199 327.052 89.7199C328.732 88.0399 330.732 87.1999 333.052 87.1999H358.252C360.572 87.1999 362.532 88.0399 364.132 89.7199C365.812 91.3199 366.652 93.2799 366.652 95.5999V120.8ZM358.252 122V94.3999H333.052V122H358.252Z" fill="#1F1F1F"/>
<path d="M426.08 87.1999L418.76 94.3999H398.48V104H415.28C417.6 104 419.56 104.84 421.16 106.52C422.84 108.12 423.68 110.08 423.68 112.4V120.8C423.68 123.12 422.84 125.12 421.16 126.8C419.56 128.4 417.6 129.2 415.28 129.2H390.08V122H415.28V111.2H398.48C396.16 111.2 394.16 110.4 392.48 108.8C390.88 107.12 390.08 105.12 390.08 102.8V95.5999C390.08 93.2799 390.88 91.3199 392.48 89.7199C394.16 88.0399 396.16 87.1999 398.48 87.1999H426.08Z" fill="#1F1F1F"/>
<path d="M517.837 129.2H509.437V94.3999H486.637V129.2H478.237V94.3999H455.437V129.2H447.037V87.1999H455.437V93.1999L461.437 87.1999H478.237C483.117 87.1999 485.877 89.2399 486.517 93.3199L492.637 87.1999H509.437C511.757 87.1999 513.717 88.0399 515.317 89.7199C516.997 91.3199 517.837 93.2799 517.837 95.5999V129.2Z" fill="#1F1F1F"/>
<path d="M621.694 70.3999L608.494 129.2H592.294L580.894 86.1199H579.694L568.294 129.2H552.094L538.894 70.3999H549.694L559.294 121.04H561.694L575.494 70.3999H585.094L598.894 121.04H601.294L610.894 70.3999H621.694Z" fill="#1F1F1F"/>
<path d="M682.866 129.2H674.466V123.08L667.266 129.2H649.266C646.946 129.2 644.946 128.4 643.266 126.8C641.666 125.12 640.866 123.12 640.866 120.8V112.4C640.866 110.08 641.666 108.12 643.266 106.52C644.946 104.84 646.946 104 649.266 104H673.266L666.066 111.08H649.266V122H674.466V94.3999H640.866L648.066 87.1999H674.466C676.786 87.1999 678.746 88.0399 680.346 89.7199C682.026 91.3199 682.866 93.2799 682.866 95.5999V129.2Z" fill="#1F1F1F"/>
<path d="M742.219 87.1999L734.899 94.3999H714.619V104H731.419C733.739 104 735.699 104.84 737.299 106.52C738.979 108.12 739.819 110.08 739.819 112.4V120.8C739.819 123.12 738.979 125.12 737.299 126.8C735.699 128.4 733.739 129.2 731.419 129.2H706.219V122H731.419V111.2H714.619C712.299 111.2 710.299 110.4 708.619 108.8C707.019 107.12 706.219 105.12 706.219 102.8V95.5999C706.219 93.2799 707.019 91.3199 708.619 89.7199C710.299 88.0399 712.299 87.1999 714.619 87.1999H742.219Z" fill="#1F1F1F"/>
<path d="M833.977 129.2H825.577V94.3999H802.777V129.2H794.377V94.3999H771.577V129.2H763.177V87.1999H771.577V93.1999L777.577 87.1999H794.377C799.257 87.1999 802.017 89.2399 802.657 93.3199L808.777 87.1999H825.577C827.897 87.1999 829.857 88.0399 831.457 89.7199C833.137 91.3199 833.977 93.2799 833.977 95.5999V129.2Z" fill="#1F1F1F"/>
<defs>
<linearGradient id="paint0_linear" x1="37.2" y1="8.40039" x2="165.2" y2="190.8" gradientUnits="userSpaceOnUse">
<stop stop-color="#FCECB2"/>
<stop offset="0.260417" stop-color="#FF8B89"/>
<stop offset="0.520833" stop-color="#FC8ADC"/>
<stop offset="0.755208" stop-color="#7954FF"/>
<stop offset="1" stop-color="#70BCFF"/>
</linearGradient>
</defs>
</svg>
