<svg xmlns="http://www.w3.org/2000/svg" width="100" height="100" fill="none" viewBox="0 0 100 100">
    <path fill="#fff" d="M0 0H445V1136H0z" transform="translate(-28 -30)"/>
    <path fill="#EB5757" d="M50 .164C22.472.164.164 22.474.164 50S22.474 99.836 50 99.836c27.527 0 49.836-22.31 49.836-49.836S77.526.164 50 .164zm0 92.021C26.708 92.145 7.857 73.294 7.815 50 7.856 26.708 26.707 7.857 50 7.815 73.292 7.855 92.143 26.706 92.186 50 92.144 73.292 73.294 92.143 50 92.185z"/>
    <path fill="#EB5757" d="M50.358 64.347c2.11 0 3.83-1.711 3.83-3.829V25.642c0-2.11-1.713-3.83-3.83-3.83-2.11 0-3.83 1.712-3.83 3.83v34.876c0 2.118 1.712 3.83 3.83 3.83zM54.324 74.983c0 5.294-7.94 5.294-7.94 0s7.94-5.294 7.94 0z"/>
</svg>
